<?xml version="1.0" encoding="UTF-8"?><svg id="a" xmlns="http://www.w3.org/2000/svg" viewBox="0 0 640 640"><defs><style>.b{stroke-width:8px;}.b,.c{fill:#333;stroke:#ccc;stroke-miterlimit:10;}.c{stroke-width:6px;}.d{fill:#64a576;isolation:isolate;}</style></defs><path class="d" d="M82.83,178.07c.62,112.9,47.43,307.95,230.25,395.41,4.45,2.1,9.64,2.1,13.96,0,182.82-87.46,229.64-282.51,230.13-395.41,0-6.18-3.83-12.6-11.12-15.81l-226.05-95.73-225.93,95.86c-7.29,3.09-11.24,9.64-11.12,15.81l-.12-.12Z"/><path class="c" d="M94.07,162.38l225.93-95.86,226.05,95.86c7.29,3.09,11.24,9.64,11.12,15.81-.49,112.9-47.43,307.95-230.13,395.41-4.45,2.1-9.64,2.1-13.96,0C130.26,486.14,83.45,291.09,82.83,178.19c0-6.18,3.83-12.6,11.12-15.81h.12ZM569.28,107.78L336.55,9.08c-5.19-2.35-10.75-3.58-16.55-3.58s-11.36,1.24-16.55,3.58L70.85,107.78c-27.18,11.49-47.43,38.29-47.31,70.66.62,122.54,51.02,346.74,263.85,448.65,20.63,9.88,44.59,9.88,65.22,0,212.96-101.91,263.24-326.11,263.85-448.65.12-32.36-20.13-59.17-47.31-70.66h.12Z"/><path class="b" d="M288.57,195.19c1.54-7.6,8.26-13.09,16.07-13.09h30.7c7.8,0,14.53,5.49,16.07,13.09l7.44,35.93c7.24,3.08,14.01,7.03,20.17,11.7l34.8-11.55c7.39-2.46,15.5.62,19.4,7.39l15.35,26.59c3.9,6.78,2.52,15.3-3.34,20.48l-27.36,24.33c.46,3.8.67,7.7.67,11.65s-.26,7.85-.67,11.65l27.41,24.38c5.85,5.18,7.19,13.76,3.34,20.48l-15.35,26.59c-3.9,6.72-12.01,9.86-19.4,7.39l-34.8-11.55c-6.21,4.67-12.99,8.57-20.17,11.7l-7.39,35.88c-1.59,7.65-8.32,13.09-16.07,13.09h-30.7c-7.8,0-14.53-5.49-16.07-13.09l-7.39-35.88c-7.24-3.08-13.96-7.03-20.17-11.7l-34.96,11.55c-7.39,2.46-15.5-.62-19.4-7.39l-15.35-26.59c-3.9-6.78-2.52-15.3,3.34-20.48l27.41-24.38c-.46-3.8-.67-7.7-.67-11.65s.26-7.85.67-11.65l-27.41-24.38c-5.85-5.18-7.19-13.76-3.34-20.48l15.35-26.59c3.9-6.78,12.01-9.86,19.4-7.39l34.8,11.55c6.21-4.67,12.99-8.57,20.17-11.7l7.44-35.88ZM319.99,362.8c22.69-.1,41.02-18.53,40.91-41.22-.1-22.69-18.53-41.02-41.22-40.91-22.69.1-41.02,18.53-40.91,41.22.1,22.69,18.53,41.02,41.22,40.91Z"/></svg>